<?xml version="1.0" encoding="UTF-8"?>
<svg xmlns="http://www.w3.org/2000/svg" width="170.1" height="170.1" version="1.1" viewBox="0 0 170.1 170.1">
  <defs>
    <style>
      .cls-1 {
        fill: #fff;
      }

      .cls-2 {
        fill: #228a38;
      }
    </style>
  </defs>
  <!-- Generator: Adobe Illustrator 28.6.0, SVG Export Plug-In . SVG Version: 1.2.0 Build 709)  -->
  <g>
    <g id="_レイヤー_1" data-name="レイヤー_1">
      <g id="_レイヤー_1-2" data-name="_レイヤー_1">
        <path class="cls-1" d="M85,2c45.8,0,83.1,37.3,83.1,83.1s-37.3,83.1-83.1,83.1S2,130.8,2,85,39.2,2,85,2"/>
        <g>
          <path class="cls-2" d="M85,4.3c44.5,0,80.8,36.2,80.8,80.8s-36.2,80.8-80.8,80.8S4.3,129.6,4.3,85,40.5,4.3,85,4.3M85,0C38.1,0,0,38.1,0,85s38.1,85,85,85,85-38.1,85-85S132,0,85,0h0Z"/>
          <path class="cls-2" d="M72,128.1h-34.8v-10.4h13.2c1.2,0,2.1-1,2.1-2.1v-13.6h13.2c1.2,0,2.1-1,2.1-2.1v-13.6h13.2c1.2,0,2.1-1,2.1-2.1v-13.6h13.2c1.2,0,2.1-1,2.1-2.1v-13.6h13.2c1.2,0,2.1-1,2.1-2.1v-13.6h11.2v28.5c0,1.2,1,2.1,2.1,2.1s2.1-1,2.1-2.1v-30.6c0-1.2-1-2.1-2.1-2.1h-15.5c-1.2,0-2.1,1-2.1,2.1v13.6h-13.2c-1.2,0-2.1,1-2.1,2.1v13.6h-13.2c-1.2,0-2.1,1-2.1,2.1v13.6h-13.2c-1.2,0-2.1,1-2.1,2.1v13.6h-13.2c-1.2,0-2.1,1-2.1,2.1v13.6h-13.2c-1.2,0-2.1,1-2.1,2.1v14.7c0,1.2,1,2.1,2.1,2.1h37.1c1.2,0,2.1-.9,2.1-2.1s-1-2.1-2.2-2.1ZM91.3,94.3c-.4-.4-1-.7-1.6-.7h0c-.6,0-1.2.2-1.6.7l-15,16.5c-.6.6-.7,1.5-.4,2.3.3.8,1.1,1.3,2,1.3h5.6v15.9c0,1.2,1,2.1,2.1,2.1h14.5c1.2,0,2.1-1,2.1-2.1v-15.9h5.6c.8,0,1.6-.5,2-1.3.3-.8.2-1.7-.4-2.3l-15-16.5ZM97,110.1c-1.2,0-2.1,1-2.1,2.1v15.9h-10.3v-15.9c0-1.2-1-2.1-2.1-2.1h-2.9l10.2-11.2,10.2,11.2h-2.9ZM137,95.3c-.3-.8-1.1-1.3-2-1.3h-5.6v-15.9c0-1.2-1-2.1-2.1-2.1h-14.5c-1.2,0-2.1,1-2.1,2.1v15.9h-5.6c-.8,0-1.6.5-2,1.3-.3.8-.2,1.7.4,2.3l15,16.5c.4.4,1,.7,1.6.7s1.2-.3,1.6-.7l15-16.5c.6-.6.7-1.5.4-2.3ZM120,109.5l-10.2-11.2h2.9c1.2,0,2.1-1,2.1-2.1v-15.9h10.3v15.9c0,1.2,1,2.1,2.1,2.1h2.9s-10.2,11.2-10.2,11.2Z"/>
        </g>
      </g>
    </g>
  </g>
</svg>