<?xml version="1.0" encoding="UTF-8"?>
<svg xmlns="http://www.w3.org/2000/svg" width="6.3mm" height="6.4mm" version="1.1" viewBox="0 0 17.9 18.1">
  <defs>
    <style>
      .cls-1 {
        fill: none;
        stroke: #fff;
        stroke-miterlimit: 10;
      }

      .cls-2 {
        fill: #fff;
      }
    </style>
  </defs>
  <!-- Generator: Adobe Illustrator 28.6.0, SVG Export Plug-In . SVG Version: 1.2.0 Build 709)  -->
  <g>
    <g id="_レイヤー_1" data-name="レイヤー_1">
      <polyline class="cls-1" points="5 9 8.7 9 8.7 4.2"/>
      <g>
        <path class="cls-2" d="M8.7,17.4C4.1,17.4.3,13.6.3,9S4.1.7,8.7.7s5.9,1.7,7.4,4.5v.3c.1,0-1.3.7-1.3.7v-.3c-1.3-2.2-3.6-3.6-6.1-3.6-3.7,0-6.8,3-6.8,6.8s3,6.8,6.8,6.8,5.6-2,6.5-4.9v-.3c0,0,1.6.4,1.6.4v.3c-1.1,3.5-4.4,6-8.1,6Z"/>
        <path class="cls-2" d="M15.4,11c-.9,2.9-3.6,5.1-6.8,5.1S1.6,12.9,1.6,9,4.8,2,8.7,2s5.1,1.5,6.3,3.8l.9-.5C14.5,2.7,11.8,1,8.7,1,4.2,1,.6,4.6.6,9s3.6,8.1,8.1,8.1,6.7-2.4,7.7-5.8l-1-.3Z"/>
      </g>
      <polygon class="cls-2" points="15.8 7.7 13.6 12.1 17.9 12.1 15.8 7.7"/>
    </g>
  </g>
</svg>